<svg width="102" height="37" viewBox="0 0 102 37" fill="none" xmlns="http://www.w3.org/2000/svg">
<g id="ARTWORK" clip-path="url(#clip0_60_8)">
<path id="Vector" d="M0 0.327881V36.418H41.6835V0.327881H0ZM9.87786 21.0859C10.6501 21.8751 11.8696 22.2698 13.5362 22.2699C14.5509 22.2699 15.3765 22.1154 16.0129 21.8064C16.5279 21.5593 16.8877 21.1647 17.0922 20.6226H14.4802V17.5749H23.3651V25.3584H20.8076L20.0237 23.8449C19.3121 24.4695 18.5282 24.9157 17.6719 25.1834C16.2177 25.6297 14.5059 25.8528 12.5365 25.8527C9.38521 25.8527 6.89697 25.2384 5.07178 24.0099C4.17822 23.4125 3.49644 22.6368 3.02645 21.6829C2.53403 20.681 2.28798 19.5968 2.28829 18.4304C2.28829 16.7765 2.74273 15.3454 3.65161 14.1372C4.57565 12.9222 5.98445 12.0471 7.87802 11.5119C9.3398 11.0999 10.9951 10.8939 12.844 10.8941C14.7074 10.8941 16.3965 11.0897 17.9114 11.4809C20.0394 12.0301 21.5847 12.9636 22.5471 14.2813C22.9482 14.8234 23.2208 15.5029 23.3649 16.3198H16.3104C15.8104 15.0911 14.678 14.4768 12.9131 14.4768C11.5876 14.4768 10.5688 14.8303 9.85674 15.5374C9.16754 16.2101 8.82294 17.1195 8.82294 18.2657C8.8217 19.4319 9.17334 20.372 9.87786 21.0859ZM39.3952 14.9126H33.4191V25.3821H27.4769V14.9126H24.2627C24.0978 14.464 23.8677 14.0355 23.5779 13.6372C22.8945 12.7021 21.9649 11.9308 20.8016 11.3296H39.3954L39.3952 14.9126Z" fill="#010101"/>
<path id="Vector_2" d="M52.3324 11.1372C53.1943 11.1372 53.9931 11.2337 54.7289 11.4267C55.4646 11.6197 56.1221 11.9028 56.7013 12.2759C57.2861 12.6542 57.7817 13.126 58.1614 13.6657C58.5553 14.2193 58.8415 14.8627 59.02 15.5959H57.4595C57.2958 15.0168 57.0394 14.5212 56.6904 14.1091C56.3579 13.7107 55.942 13.37 55.4643 13.1045C54.9975 12.8478 54.4855 12.6588 53.9485 12.5448C53.405 12.429 52.8473 12.3707 52.2877 12.3712C51.4852 12.3712 50.7349 12.503 50.0367 12.7668C49.3387 13.0303 48.7179 13.426 48.22 13.9249C47.7071 14.4339 47.3021 15.0612 47.0049 15.8068C46.7078 16.5525 46.559 17.4083 46.5587 18.3742C46.5587 19.3008 46.6962 20.1372 46.9711 20.8834C47.246 21.6296 47.6287 22.2634 48.1193 22.7847C48.5958 23.2963 49.2022 23.7059 49.8915 23.9813C50.5825 24.2579 51.3442 24.3962 52.1765 24.3962C52.7991 24.3936 53.4195 24.3321 54.0267 24.2128C54.6491 24.0967 55.2397 23.8771 55.7655 23.5662C56.2856 23.2575 56.7166 22.8329 57.0585 22.2924C57.4004 21.752 57.5713 21.0571 57.5713 20.2079V19.6867H53.0462V18.4907H58.9984V25.3821H57.6832L57.66 23.4131C57.1695 24.0822 56.4785 24.6194 55.5868 25.0247C54.6951 25.43 53.5507 25.6326 52.1538 25.6326C50.9944 25.6326 49.9689 25.4525 49.0772 25.0922C48.1855 24.7319 47.4352 24.2301 46.8263 23.5867C46.2167 22.9438 45.756 22.1782 45.4441 21.2898C45.1323 20.4015 44.9762 19.4296 44.9759 18.3742C44.9759 17.3062 45.1431 16.3284 45.4776 15.4408C45.812 14.5531 46.295 13.7907 46.9265 13.1535C47.5579 12.5166 48.327 12.021 49.2338 11.6668C50.1407 11.3125 51.1736 11.1359 52.3324 11.1372Z" fill="black"/>
<path id="Vector_3" d="M67.0679 16.2125C66.957 16.1999 66.8453 16.1932 66.7335 16.1924H66.4437C65.8194 16.1924 65.2993 16.2857 64.8831 16.4723C64.4775 16.6508 64.1319 16.917 63.8799 17.245C63.627 17.5733 63.4449 17.9658 63.3337 18.4226C63.2225 18.8793 63.1668 19.3844 63.1666 19.9377V25.3805H61.8068V14.9965H63.122V16.888C63.252 16.5845 63.4491 16.3059 63.7022 16.0676C63.9551 15.8294 64.2439 15.6217 64.5608 15.45C64.879 15.2771 65.224 15.1441 65.5853 15.055C65.9367 14.9666 66.3006 14.9211 66.6664 14.9198H66.8449C66.9198 14.9201 66.9945 14.9269 67.0679 14.9399V16.2125Z" fill="black"/>
<path id="Vector_4" d="M67.2684 20.2272C67.2684 19.288 67.417 18.4777 67.7142 17.7961C68.0114 17.1146 68.4089 16.5521 68.9069 16.1085C69.389 15.6733 69.9801 15.3397 70.6346 15.1336C71.292 14.9273 71.9862 14.8227 72.6855 14.8248C73.3883 14.8233 74.0861 14.9278 74.7475 15.1336C75.4062 15.3381 76.0013 15.6718 76.4863 16.1085C76.984 16.5522 77.3816 17.1148 77.6791 17.7961C77.9766 18.4775 78.1251 19.2879 78.1248 20.2272C78.1248 21.1796 77.9762 21.9934 77.6791 22.6688C77.3819 23.3441 76.9843 23.9039 76.4863 24.348C76.0013 24.7847 75.4062 25.1182 74.7475 25.3227C74.0861 25.5285 73.3883 25.633 72.6855 25.6315C71.9862 25.6335 71.292 25.529 70.6346 25.3227C69.9801 25.1166 69.389 24.7831 68.9069 24.348C68.4088 23.904 68.0112 23.3442 67.7142 22.6688C67.4171 21.9933 67.2686 21.1794 67.2684 20.2272ZM68.7396 20.2272C68.7396 20.9737 68.8362 21.617 69.0295 22.1572C69.2227 22.6974 69.4939 23.1446 69.843 23.4987C70.1786 23.8443 70.6074 24.1128 71.0915 24.2805C71.5743 24.4478 72.1057 24.5314 72.6855 24.5313C73.2653 24.5311 73.7966 24.4475 74.2795 24.2805C74.7634 24.1127 75.1921 23.8442 75.5277 23.4987C75.8767 23.145 76.1517 22.6978 76.3526 22.1572C76.5536 21.6166 76.6542 20.9733 76.6543 20.2272C76.6543 19.481 76.5538 18.8376 76.3526 18.297C76.1515 17.7564 75.8765 17.3093 75.5277 16.9555C75.1919 16.6103 74.7632 16.3419 74.2795 16.174C73.7963 16.0068 73.265 15.9231 72.6855 15.923C72.106 15.9229 71.5746 16.0065 71.0915 16.174C70.6076 16.3418 70.1788 16.6102 69.843 16.9555C69.4937 17.3098 69.2225 17.757 69.0295 18.297C68.8364 18.8371 68.7398 19.4805 68.7396 20.2272Z" fill="black"/>
<path id="Vector_5" d="M87.3762 23.7015C87.22 23.9558 87.0333 24.1951 86.8192 24.4155C86.5854 24.6556 86.3111 24.8638 86.0057 25.0331C85.6666 25.2212 85.299 25.3674 84.9134 25.4675C84.5043 25.5766 84.0402 25.6312 83.521 25.6315C82.1535 25.6315 81.1615 25.2809 80.5452 24.5797C79.9288 23.8785 79.6197 22.8908 79.6179 21.6168V14.9966H81V21.2887C81 21.7778 81.0408 22.2218 81.1225 22.6205C81.2042 23.0193 81.3492 23.3635 81.5574 23.6531C81.7653 23.9425 82.0588 24.1645 82.4378 24.3191C82.8168 24.4737 83.2964 24.5509 83.8766 24.5507C84.3442 24.5523 84.8059 24.4598 85.2253 24.2805C85.6541 24.0962 86.0335 23.8361 86.3391 23.517C86.6584 23.189 86.9111 22.7998 87.097 22.3493C87.283 21.8989 87.3758 21.397 87.3755 20.8438V14.9966H88.7576V25.3805H87.3755L87.3762 23.7015Z" fill="black"/>
<path id="Vector_6" d="M102 20.2272C102 21.0893 101.87 21.8549 101.61 22.5241C101.349 23.1933 100.989 23.7594 100.529 24.2225C100.068 24.6858 99.5326 25.0364 98.9234 25.2745C98.314 25.5124 97.6526 25.6342 96.9841 25.6315C96.0923 25.6315 95.3009 25.461 94.61 25.1202C93.9191 24.7793 93.358 24.2934 92.9269 23.6627V28.7575H91.5455V14.9966H92.9276V16.7723C93.3583 16.1547 93.9193 15.6754 94.6107 15.3343C95.302 14.9933 96.0934 14.8228 96.9848 14.8228C97.6533 14.8201 98.3147 14.9419 98.9241 15.1798C99.5335 15.4181 100.069 15.7688 100.529 16.2318C100.99 16.6949 101.35 17.261 101.61 17.9304C101.87 18.5997 102 19.3653 102 20.2272ZM92.8375 20.2272C92.8375 20.9992 92.9527 21.6586 93.1831 22.2055C93.4134 22.7524 93.7144 23.1995 94.086 23.547C94.4573 23.8943 94.8734 24.1485 95.3345 24.3095C95.7955 24.4705 96.2487 24.5508 96.6943 24.5506C97.2438 24.5506 97.7528 24.454 98.2212 24.261C98.6945 24.0644 99.1099 23.7773 99.4363 23.4214C99.7778 23.0545 100.042 22.6041 100.228 22.0702C100.414 21.5363 100.506 20.9219 100.506 20.227C100.506 19.5321 100.413 18.9177 100.228 18.3836C100.042 17.8496 99.7778 17.3993 99.4353 17.0329C99.1091 16.6769 98.6936 16.3898 98.2203 16.1932C97.7522 16.0001 97.2432 15.9036 96.6934 15.9037C96.2474 15.9037 95.7941 15.9841 95.3335 16.1448C94.873 16.3056 94.4568 16.5597 94.0851 16.9071C93.7138 17.2547 93.4128 17.7019 93.1822 18.2486C92.9515 18.7954 92.8366 19.4549 92.8375 20.2272Z" fill="black"/>
</g>
<defs>
<clipPath id="clip0_60_8">
<rect width="102" height="36.0902" fill="white" transform="translate(0 0.327881)"/>
</clipPath>
</defs>
</svg>
